<?xml version="1.0" encoding="utf-8"?>
<!-- Generator: Adobe Illustrator 18.1.1, SVG Export Plug-In . SVG Version: 6.00 Build 0)  -->
<svg version="1.1" xmlns="http://www.w3.org/2000/svg" xmlns:xlink="http://www.w3.org/1999/xlink" x="0px" y="0px"
	 viewBox="0 0 560 72.8" enable-background="new 0 0 560 72.8" xml:space="preserve">
<g id="Layer_2">
</g>
<g id="Layer_1">
	<g>
		<path fill="#FFFFFF" d="M35.5,12v33.9c0,5.6-1,9.5-3.1,11.5c-2.1,2.1-5.9,3.1-11.6,3.1c-5.7,0-9.7-0.9-11.8-2.6
			c-2.1-1.7-3.2-5-3.2-9.7c0-2.2,0-4.1,0.1-5.7h5.3v0.9v3.7c0,3.9,0.5,6.4,1.6,7.3s3.7,1.5,7.8,1.5c4.1,0,6.7-0.6,7.8-1.9
			c1.1-1.3,1.7-4.3,1.7-9V12H35.5z"/>
		<path fill="#FFFFFF" d="M58.3,25.9c6.2,0,10.2,1.1,12.1,3.2c1.9,2.2,2.8,6.8,2.8,14.1c0,7.2-0.9,11.9-2.8,14.1
			c-1.9,2.2-5.9,3.2-12.1,3.2c-6.2,0-10.2-1.1-12.1-3.2c-1.9-2.2-2.8-6.8-2.8-14.1c0-7.2,0.9-11.9,2.8-14.1
			C48.1,27,52.1,25.9,58.3,25.9z M58.3,30c-4.4,0-7.1,0.7-8.1,2.1c-1,1.4-1.6,5.1-1.6,11.1s0.5,9.7,1.6,11.1c1,1.4,3.7,2.1,8.1,2.1
			c4.4,0,7.1-0.7,8.1-2.1c1-1.4,1.6-5.1,1.6-11.1s-0.5-9.7-1.6-11.1C65.4,30.7,62.7,30,58.3,30z"/>
		<path fill="#FFFFFF" d="M80.8,26.4h4.7L85.5,31l0.1,0.1c1.5-3.4,5.2-5.2,11.2-5.2c4.8,0,8.1,0.8,9.8,2.5c1.7,1.7,2.5,4.9,2.5,9.7
			V60h-4.9V38.6v-1.3c0-2.9-0.6-4.8-1.7-5.8c-1.1-1-3.2-1.5-6.4-1.5c-6.9,0-10.4,3.3-10.4,9.8V60h-4.9V26.4z"/>
		<path fill="#FFFFFF" d="M123.1,35.8h-4.9c0-3.9,0.9-6.5,2.7-7.9c1.8-1.3,5.2-2,10.4-2c5.6,0,9.4,0.8,11.4,2.5s3,4.8,3,9.4V60h-4.9
			l0.4-3.6l-0.1,0c-1.9,2.8-5.7,4.1-11.4,4.1c-8.5,0-12.7-3.4-12.7-10.2c0-4.1,0.9-6.9,2.8-8.4s5.3-2.3,10.3-2.3
			c5.9,0,9.4,1.2,10.6,3.5l0.1,0v-4.1c0-3.8-0.5-6.3-1.6-7.5c-1.1-1.1-3.4-1.7-6.9-1.7c-6,0-9.1,1.7-9.1,5.1
			C123.1,35,123.1,35.3,123.1,35.8z M131,43.4c-3.8,0-6.2,0.4-7.4,1.2c-1.1,0.8-1.7,2.5-1.7,5.1c0,2.7,0.6,4.5,1.7,5.4
			s3.4,1.3,6.9,1.3c6.9,0,10.4-2.1,10.4-6.3c0-2.6-0.7-4.4-2-5.3S134.9,43.4,131,43.4z"/>
		<path fill="#FFFFFF" d="M172.5,26.4v4.1h-12.9V51c0,3.6,1.6,5.4,4.8,5.4c3.2,0,4.7-1.6,4.7-4.8l0-1.7l0.1-1.9h4.6l0,2.5
			c0,6.6-3.1,9.9-9.4,9.9c-6.5,0-9.7-2.8-9.7-8.3V51V30.5H150v-4.1h4.6v-8.1h4.9v8.1H172.5z"/>
		<path fill="#FFFFFF" d="M183,12v18.5l0.1,0.1c1.2-3.1,4.7-4.7,10.4-4.7c8.4,0,12.7,3.8,12.7,11.2v1.4V60h-4.9V38.5v-0.9
			c0-5.1-2.6-7.6-7.8-7.6c-4.2,0-7,0.7-8.4,2.2c-1.4,1.5-2.1,4.4-2.1,8.9V60h-4.9V12H183z"/>
		<path fill="#FFFFFF" d="M220.3,35.8h-4.9c0-3.9,0.9-6.5,2.7-7.9c1.8-1.3,5.2-2,10.4-2c5.6,0,9.4,0.8,11.4,2.5s3,4.8,3,9.4V60h-4.9
			l0.4-3.6l-0.1,0c-1.9,2.8-5.7,4.1-11.4,4.1c-8.5,0-12.7-3.4-12.7-10.2c0-4.1,0.9-6.9,2.8-8.4s5.3-2.3,10.3-2.3
			c5.9,0,9.4,1.2,10.6,3.5l0.1,0v-4.1c0-3.8-0.5-6.3-1.6-7.5c-1.1-1.1-3.4-1.7-6.9-1.7c-6,0-9.1,1.7-9.1,5.1
			C220.2,35,220.3,35.3,220.3,35.8z M228.2,43.4c-3.8,0-6.2,0.4-7.4,1.2c-1.1,0.8-1.7,2.5-1.7,5.1c0,2.7,0.6,4.5,1.7,5.4
			s3.4,1.3,6.9,1.3c6.9,0,10.4-2.1,10.4-6.3c0-2.6-0.7-4.4-2-5.3S232.1,43.4,228.2,43.4z"/>
		<path fill="#FFFFFF" d="M251.8,26.4h4.7l-0.1,4.6l0.1,0.1c1.5-3.4,5.2-5.2,11.2-5.2c4.8,0,8.1,0.8,9.8,2.5s2.5,4.9,2.5,9.7V60
			h-4.9V38.6v-1.3c0-2.9-0.6-4.8-1.7-5.8c-1.1-1-3.2-1.5-6.4-1.5c-6.9,0-10.4,3.3-10.4,9.8V60h-4.9V26.4z"/>
		<path fill="#FFFFFF" d="M348.2,12v48h-8.9l-20.1-32.7l-3.3-5.4l-1.6-2.7l-1.6-2.7h-0.1l0,1.8l0,1.8v3.6V60h-5.4V12h8.9l17.5,28.6
			l4.6,7.5l2.3,3.7l2.2,3.8h0.1l0-1.8l0-1.8v-3.6V12H348.2z"/>
		<path fill="#FFFFFF" d="M362,12v5.5h-4.9V12H362z M362,26.4V60h-4.9V26.4H362z"/>
		<path fill="#FFFFFF" d="M393.7,47.9h4.9l0,1.8c0,7.2-4.7,10.8-14.1,10.8c-6,0-10-1.1-12-3.4c-1.9-2.3-2.9-7-2.9-14.1
			c0-6.7,1-11.2,3-13.6c2-2.4,5.7-3.6,11.3-3.6c5.5,0,9.2,0.8,11.2,2.4c2,1.6,3,4.6,3,9.1h-4.9v-0.9c0-2.6-0.6-4.3-1.9-5.2
			c-1.3-0.9-3.9-1.3-7.7-1.3c-3.7,0-6.1,0.8-7.1,2.5c-1.1,1.6-1.6,5.3-1.6,11c0,5.6,0.6,9.1,1.8,10.7c1.2,1.5,4,2.3,8.5,2.3
			c3.8,0,6.1-0.5,7.1-1.5C393.2,53.9,393.7,51.6,393.7,47.9z"/>
		<path fill="#FFFFFF" d="M410.5,12v18.5l0.1,0.1c1.2-3.1,4.7-4.7,10.4-4.7c8.4,0,12.7,3.8,12.7,11.2v1.4V60h-4.9V38.5v-0.9
			c0-5.1-2.6-7.6-7.8-7.6c-4.2,0-7,0.7-8.4,2.2c-1.4,1.5-2.1,4.4-2.1,8.9V60h-4.9V12H410.5z"/>
		<path fill="#FFFFFF" d="M456.5,25.9c6.2,0,10.2,1.1,12.1,3.2c1.9,2.2,2.8,6.8,2.8,14.1c0,7.2-0.9,11.9-2.8,14.1
			c-1.9,2.2-5.9,3.2-12.1,3.2c-6.2,0-10.2-1.1-12.1-3.2c-1.9-2.2-2.8-6.8-2.8-14.1c0-7.2,0.9-11.9,2.8-14.1
			C446.2,27,450.3,25.9,456.5,25.9z M456.5,30c-4.4,0-7.1,0.7-8.1,2.1c-1,1.4-1.6,5.1-1.6,11.1s0.5,9.7,1.6,11.1
			c1,1.4,3.7,2.1,8.1,2.1c4.4,0,7.1-0.7,8.1-2.1c1-1.4,1.6-5.1,1.6-11.1s-0.5-9.7-1.6-11.1C463.6,30.7,460.8,30,456.5,30z"/>
		<path fill="#FFFFFF" d="M483.9,12v48H479V12H483.9z"/>
		<path fill="#FFFFFF" d="M497.7,35.8h-4.9c0-3.9,0.9-6.5,2.7-7.9c1.8-1.3,5.2-2,10.4-2c5.6,0,9.4,0.8,11.4,2.5s3,4.8,3,9.4V60h-4.9
			l0.4-3.6l-0.1,0c-1.9,2.8-5.7,4.1-11.4,4.1c-8.5,0-12.7-3.4-12.7-10.2c0-4.1,0.9-6.9,2.8-8.4s5.3-2.3,10.3-2.3
			c5.9,0,9.4,1.2,10.6,3.5l0.1,0v-4.1c0-3.8-0.5-6.3-1.6-7.5c-1.1-1.1-3.4-1.7-6.9-1.7c-6,0-9.1,1.7-9.1,5.1
			C497.7,35,497.7,35.3,497.7,35.8z M505.6,43.4c-3.8,0-6.2,0.4-7.4,1.2c-1.1,0.8-1.7,2.5-1.7,5.1c0,2.7,0.6,4.5,1.7,5.4
			s3.4,1.3,6.9,1.3c6.9,0,10.4-2.1,10.4-6.3c0-2.6-0.7-4.4-2-5.3S509.5,43.4,505.6,43.4z"/>
		<path fill="#FFFFFF" d="M555.3,35.2h-4.9c0-2.3-0.5-3.8-1.4-4.4s-3.4-0.8-7.3-0.8c-3.7,0-6,0.3-7,0.9s-1.5,2-1.5,4.3
			c0,3.4,1.7,5.3,5,5.4l4,0.2l5,0.2c6.1,0.3,9.1,3.5,9.1,9.6c0,3.8-1,6.4-3,7.8s-5.7,2.1-11.1,2.1c-5.5,0-9.3-0.7-11.4-2
			s-3.1-3.8-3.1-7.3l0-1.8h5.1l0,1.6c0,2.2,0.6,3.7,1.7,4.4s3.3,1.1,6.6,1.1c4.1,0,6.7-0.4,8-1.2s1.9-2.4,1.9-4.9
			c0-3.5-1.6-5.3-4.8-5.3c-7.5,0-12.4-0.6-14.7-1.9s-3.5-3.9-3.5-7.9c0-3.8,0.9-6.3,2.8-7.5c1.9-1.3,5.6-1.9,11.1-1.9
			c8.9,0,13.4,2.7,13.4,8.1V35.2z"/>
	</g>
	<g>
	</g>
	<g>
	</g>
	<g>
	</g>
	<g>
	</g>
	<g>
	</g>
	<g>
	</g>
	<g>
	</g>
	<g>
	</g>
	<g>
	</g>
	<g>
	</g>
	<g>
	</g>
	<g>
	</g>
	<g>
	</g>
	<g>
	</g>
	<g>
	</g>
	<g>
	</g>
	<g>
	</g>
	<g>
	</g>
	<g>
	</g>
	<g>
	</g>
	<g>
	</g>
	<g>
	</g>
	<g>
	</g>
	<g>
	</g>
	<g>
	</g>
</g>
</svg>
